<svg width="32" height="32" viewBox="0 0 32 32" fill="none" xmlns="http://www.w3.org/2000/svg">
<rect width="32" height="32" rx="16" fill="white"/>
<path d="M15.8592 6.352C16.4352 6.352 16.7232 6.736 16.7232 7.504C16.7232 7.696 16.704 7.92 16.6656 8.176C16.4736 9.392 15.968 10.6464 15.1488 11.9392C14.56 12.8736 14.0032 13.4624 13.4784 13.7056C13.2224 15.088 12.9984 16.3424 12.8064 17.4688H12.9408C14.016 15.0752 15.104 13.8784 16.2048 13.8784C16.6016 13.8784 16.9088 14 17.1264 14.2432C17.3568 14.4864 17.472 14.8192 17.472 15.2416C17.472 15.664 17.3056 16.592 16.9728 18.0256C16.64 19.4464 16.4736 20.4384 16.4736 21.0016C16.4736 21.8336 16.6272 22.2496 16.9344 22.2496C16.9344 22.3392 16.8768 22.4288 16.7616 22.5184C16.6464 22.608 16.512 22.6528 16.3584 22.6528C15.616 22.6528 15.2448 22.0704 15.2448 20.9056C15.2448 20.1888 15.4304 19.1264 15.8016 17.7184C16.1856 16.2976 16.3776 15.3824 16.3776 14.9728C16.3776 14.5632 16.2176 14.3584 15.8976 14.3584C15.5264 14.3584 15.1168 14.672 14.6688 15.2992C14.2208 15.9264 13.8048 16.7264 13.4208 17.6992C12.7808 19.2608 12.3008 20.5664 11.9808 21.616C11.904 21.872 11.7952 22 11.6544 22C11.424 22 11.2512 21.8592 11.136 21.5776C11.072 21.424 11.04 21.264 11.04 21.0976C11.04 20.9184 11.0912 20.5984 11.1936 20.1376C11.296 19.664 11.4688 18.8384 11.712 17.6608C11.9424 16.4832 12.1408 15.5104 12.3072 14.7424C12.4736 13.9616 12.6656 13.0912 12.8832 12.1312C13.1008 11.1584 13.3056 10.3712 13.4976 9.7696C13.7024 9.1552 13.9328 8.5664 14.1888 8.0032C14.6752 6.9024 15.232 6.352 15.8592 6.352ZM16.2816 7.5424C16.2816 7.1328 16.1664 6.8832 15.936 6.7936C15.1808 6.7936 14.4 8.9056 13.5936 13.1296C14.1056 12.7712 14.6368 12.0544 15.1872 10.9792C15.9168 9.5328 16.2816 8.3872 16.2816 7.5424Z" fill="black"/>
</svg>
